<?xml version="1.0" standalone="no"?>
<svg version="1.1" id="Layer_1" xmlns="http://www.w3.org/2000/svg" xmlns:xlink="http://www.w3.org/1999/xlink" x="0px" y="0px" width="595.28px" height="595.28px" viewBox="0 0 595.28 595.28" enable-background="new 0 0 595.28 595.28" xml:space="preserve">
<path id="color_x5F_2" fill="#ffffff" d="M310.006,269.899c0.055,0.197,0.114,0.392,0.175,0.586
	c-0.139-0.163-0.219-0.258-0.219-0.258S309.978,270.111,310.006,269.899z M375.506,250.272c-0.436-3.046-1.051-6.047-1.801-9.014
	c-0.849-2.775-1.766-5.805-2.7-8.934c-0.025,0-0.052,0-0.078,0c-1.603,0-1.526-1.417-0.544-1.94
	c-1.221-3.462-2.555-6.888-3.946-10.285c-3.568-8.708-6.939-17.6-11.407-25.899c-4.05-7.526-8.947-15.472-16.314-20.143
	c-0.479,0.045-0.942-0.066-1.196-0.412c-0.139-0.188-0.278-0.359-0.417-0.537c-0.03-0.017-0.058-0.035-0.087-0.051
	c-0.26-0.14-0.347-0.305-0.323-0.475c-4.042-4.903-8.489-5.971-14.629-2.799c-4.426,2.287-8.944,4.541-12.499,8.107
	c-0.037,0.037-0.082,0.068-0.125,0.102c0.038,0.107,0.057,0.229,0.033,0.375c-0.328,2.091-0.688,4.639-0.398,6.894
	c2.355-1.748,5.193-3.017,8.684-3.616c1.976-0.34,1.182,1.657-0.313,1.914c-3.262,0.561-5.848,1.893-7.955,3.749
	c-0.033,0.45-0.486,0.812-1.034,0.993c-7.534,7.854-8.277,23.063-12.814,32.205c-3.41,6.869-9.015,10.244-16.1,12.707
	c-3.996,1.389-7.991,2.77-11.986,4.155c-5.954,2.064-4.517,6.665-4.346,11.911c0.038,1.147-2.874,1.689-2.92,0.277
	c-0.048-1.477-0.441-3.755-0.476-5.939c-4.371,1.899-5.359,5.045-4.496,9.865c0.879,4.92,3.019,7.541,8.031,7.051
	c-0.064-0.088-0.138-0.163-0.199-0.256c-0.696-1.043,2.111-2.02,2.684-1.16c3.84,5.757,13.551,1.697,18.425-0.373
	c6.652-2.826,13.07-6.361,18.981-10.528c0.479-0.337,0.934-0.696,1.394-1.05c1.408-1.207,2.773-2.398,3.938-3.424
	c0.835-0.816,1.649-1.651,2.422-2.522c0.006-0.183,0.014-0.369,0.016-0.548c0.005-0.481,0.637-0.861,1.311-1.005
	c9.905-12.086,14.689-28.601,21.059-42.388c0.42-0.91,3.322-1.215,2.711,0.109c-3.191,6.91-5.199,14.338-8.615,21.143
	c-2.989,5.955-6.314,11.874-10.002,17.425c-1.162,1.749-2.343,3.349-3.57,4.836c-0.26,9.376-5.434,26.511,1.973,34.374
	c0.221,0.084,0.344,0.219,0.388,0.381c0.962,0.928,2.106,1.719,3.49,2.326c7.049,3.091,16.664,2.385,24.265,2.312
	c1.05-0.011,2.129-0.024,3.224-0.05l13.591-1.599c2.42-0.655,4.725-1.574,6.797-2.876
	C376.361,270.175,376.846,259.64,375.506,250.272z"></path>
<path id="color_x5F_1" d="M297.356,163.073c-1.195,1.643-3.428,2.115-5.344,2.141c-0.42,0.006-1.174-0.229-0.766-0.775
	c0.411-0.551,1.271-0.763,1.918-0.771c0.646-0.008,1.114-0.057,1.508-0.598c0.397-0.547,1.281-0.772,1.918-0.771
	C297.017,162.299,297.759,162.52,297.356,163.073z M293.694,150.688c-0.001-1.047-0.03-2.074-0.342-3.082
	c-0.239-0.771-3.123,0.05-2.898,0.777c0.313,1.008,0.342,2.035,0.342,3.082C290.797,152.064,293.694,151.607,293.694,150.688z
	 M291.8,145.123c0.976-0.226,2.052-0.279,3.019,0.012c0.683,0.205,1.562-0.03,2.049-0.55c0.447-0.475,0.286-1.08-0.34-1.269
	c-1.681-0.506-3.52-0.38-5.208,0.012c-0.518,0.12-1.386,0.626-1.209,1.286C290.294,145.298,291.282,145.243,291.8,145.123z
	 M288.122,125.794c2.998-5.329,10.4-7.924,16.256-7.748c1.184,0.035,3.055-1.723,1.09-1.781c-7.14-0.213-16.375,2.828-20.064,9.389
	C284.687,126.928,287.612,126.7,288.122,125.794z M312.857,118.753c2.432-0.248,4.745,0.33,6.805,1.633
	c0.69,0.438,3.099-0.746,2.732-0.977c-2.495-1.58-5.358-2.09-8.273-1.793c-0.641,0.065-1.446,0.24-1.941,0.686
	C311.688,118.743,312.614,118.778,312.857,118.753z M333.006,144.384c-13.673-8.365-30.695-9.365-46.328-9.415
	c-0.912-0.003-3.142,1.375-1.197,1.381c15.085,0.048,31.616,1.014,44.813,9.089C331.071,145.913,333.584,144.738,333.006,144.384z
	 M331.915,141.187c0.012,0.565,2.915,0.1,2.898-0.777c-0.021-1.08-0.37-2.066-1.117-2.857c-0.537-0.57-3.232,0.472-2.723,1.012
	C331.642,139.272,331.896,140.231,331.915,141.187z M296.323,126.831c-0.425-0.508-1.428-0.398-1.943-0.122
	c-0.536,0.288-1.198,0.653-1.345,1.306c-0.124,0.553,0.258,1.021,0.616,1.395c0.486,0.504,1.367,0.382,1.943,0.122
	c0.398-0.18,1.221-0.818,0.729-1.329c-0.104-0.107-0.193-0.223-0.284-0.339C296.374,127.591,296.644,127.215,296.323,126.831z
	 M306.259,129.471c-0.619,0.909-1.615,1.524-2.77,1.356c-0.865-0.126-0.538-0.896-0.35-1.469c0.193-0.588,1.143-0.838,1.665-0.914
	c0.259-0.037,1.247-0.084,1.226,0.39C306.308,128.931,306.493,129.126,306.259,129.471z M303.289,129.935
	c-0.001,0-0.003,0.001-0.005,0.002C303.288,129.934,303.285,129.938,303.289,129.935
	C303.289,129.935,303.289,129.935,303.289,129.935z M314.272,131.742c0.086-0.129,0.171-0.257,0.257-0.386
	c0.872-1.313-2.088-1.322-2.764-0.305c-0.085,0.129-0.171,0.258-0.256,0.387C310.638,132.751,313.597,132.76,314.272,131.742z
	 M351.666,145.813c10.165,0,20.331,0,30.496,0c1.189,0,3.046-1.805,1.084-1.805c-10.165,0-20.331,0-30.496,0
	C351.561,144.009,349.704,145.813,351.666,145.813z M504.049,418.2c0.045,0.496-0.089,1.469-0.364,2.77
	c-2.523,17.235-10.913,33.449-25.346,44.168c-16.213,12.043-39.077,18.741-59.231,17.246c-21.274-1.578-40.543-12.836-52.889-30.203
	c-8.528-11.996-14.118-26.135-15.153-40.703c-3.933,0-7.865,0-11.797,0c-1.94,0,0.319-1.344,1.207-1.344c3.503,0,7.006,0,10.508,0
	c-0.284-5.504,0.081-11.061,1.195-16.58c2.939-14.564,9.793-28.281,20.107-38.709c-5.938-6.294-11.875-12.59-17.836-18.862
	c-2.512-2.644-5.021-5.291-7.568-7.901c-0.596-0.609-1.299-1.571-2.059-2.237c-3.389,12.537-6.912,25.038-10.385,37.552
	c-3.238,11.673-6.49,23.35-9.486,35.088c4.498,0.964,8.594,3.406,11.13,7.525c4.8,7.797,3.185,19.02-5.201,23.725
	c-5.04,2.828-11.248,3.83-16.635,2.338c-0.912,4.541-2.249,10.121-5.788,13.156c0.546-0.063,0.998-0.026,0.998,0.141
	c0,5.825,0,11.65,0,17.475c0,0.798-2.898,1.2-2.898,0.777c0-0.496,0-0.992,0-1.488c-12.027,0-24.056,0-36.084,0
	c-0.635,0-0.876-0.202-0.875-0.474c-0.832,0.363-2.025,0.433-2.104-0.095c-0.707-4.775,0.898-8.913,4.609-12.016
	c3.148-2.633,7.104-4.233,10.089-7.038c0.212-0.198,0.707-0.353,1.207-0.423c3.432-12.053,2.968-24.832,6.558-36.865
	c-7.434,4.688-15.659,8.258-23.88,10.984c0.071,0.127,0.128,0.252,0.204,0.379c0.227,0.377-2.47,1.487-2.898,0.777
	c-0.089-0.148-0.156-0.295-0.238-0.442c-0.579-0.137-0.799-0.643-0.569-1.129c-5.739-12.916,13.533-25.043,20.36-33.509
	c0.2-0.248,0.671-0.413,1.174-0.511c-0.939-0.021-1.755-0.04-2.388-0.043c-1.149-0.004-0.87-0.513-0.252-0.93
	c-0.055-0.055-0.104-0.116-0.144-0.187c-4.21-7.356-6.864-15.354-10.361-23.041c-2.837-6.239-6.606-11.603-10.496-17.202
	c-2.693-3.877-6.086-8.54-8.572-13.51c-0.375,0.17-0.779,0.293-1.041,0.293c-14.299,0-28.597,0-42.896,0
	c-0.884,1.923-1.771,3.843-2.651,5.767c-1.396,3.048-2.77,6.105-4.157,9.157c11.384,5.763,21.6,14.563,28.674,24.321
	c21.438,29.571,17.699,76.248-12.586,98.74c-16.214,12.043-39.077,18.741-59.231,17.246c-21.274-1.578-40.543-12.837-52.888-30.203
	c-12.007-16.89-18.2-38.024-14.041-58.627c3.771-18.676,13.979-35.956,29.666-46.695c0.222-0.245,0.442-0.49,0.634-0.713
	c1.815-2.117,6.787-3.959,11.678-5.342c6.635-2.777,14.152-3.866,21.234-4.643c0.031-0.006,0.058-0.012,0.088-0.018
	c7.441-1.469,14.387-1.609,20.495-1.083c2.329,0.095,4.642,0.293,6.919,0.636c5.76,0.867,11.498,2.689,17.001,5.236
	c1.735-3.814,3.455-7.637,5.206-11.443c0.383-0.832,0.766-1.663,1.148-2.495c-0.085-0.104,0-0.249,0.185-0.402
	c6.318-13.733,12.673-27.471,19.565-40.927c1.168-2.28,2.862-4.643,3.726-7.047c0.539-1.502-2.647-4.164-3.4-5.142
	c-1.577-2.045-3.38-4.302-4.254-6.771c-2.108-5.952,1.407-8.79,6.229-11.234c0.13-0.065,0.261-0.108,0.391-0.141
	c3.976-8.905,17.156-9.313,26.39-9.311c1.193-1.46,3.01-2.58,5.534-3.519c0.104-0.039,0.215-0.067,0.326-0.091
	c0.102-1.729,0.522-3.288,1.658-4.183c3.006-2.368,7.106-2.947,10.601-4.293c3.084-1.188,6.669-2.1,9.965-3.452
	c0.065-0.026,0.13-0.056,0.195-0.083c2.503-1.045,4.831-2.354,6.629-4.246c3.03-3.191,4.8-7.145,6.143-11.293
	c2.979-9.211,4.958-20.438,11.465-27.301c-0.843-2.721-0.382-6.212,0.046-8.945c0.039-0.248,0.189-0.461,0.398-0.636
	c-0.205-0.228-0.199-0.548,0.197-0.946c1.306-1.311,2.808-2.598,4.43-3.817c-0.086-0.039-0.16-0.089-0.211-0.161
	c-1.984-2.848-8.35-0.332-11.235,0.076c-2.107,0.299-4.015,0.156-5.983-0.647c-5.254-2.145-9.533-8.753-10.444-14.277
	c-2.519-0.528-4.988-1.937-3.156-4.815c1.574-2.472,4.234-3.944,6.027-6.213c0.036-0.045,0.079-0.083,0.12-0.122
	c0-2.449,0-4.898,0-7.347c-0.486-0.047-0.971-0.094-1.456-0.139c-0.31,0.109-0.592,0.179-0.76,0.172
	c-9.18-0.381-8.446-8.963-4.441-15.117c5.023-7.719,14.799-10.744,23.633-11.379c11.237-0.807,23.476,1.709,31.114,10.701
	c7.107,8.369,7.564,18.482-0.43,26.383c-0.254,0.251-1.011,0.447-1.668,0.513c-0.375,1.995-1.083,5.351-1.906,7.245
	c-0.262,0.845-0.562,1.655-0.899,2.411c-0.481,1.438-0.944,2.681-2.068,3.208c-0.119,0.11-0.246,0.208-0.374,0.305
	c0.57,0.309,1.044,0.713,1.363,1.314c4.473-0.076,8.318,3.076,11,6.547c8.72,4.908,14.388,14.137,18.803,22.828
	c5.026,9.897,9.246,20.357,13.16,30.738c0.555,1.473,1.145,3.067,1.739,4.754c10.309,0,20.616,0,30.925,0
	c1.966,0,1.406,2.133-0.254,2.133c-9.979,0-19.959,0-29.938,0c4.835,14.33,9.148,33.992-3.126,43.209
	c-1.552,6.869-2.187,14.676-6.98,20.242c-0.146,0.169-0.3,0.33-0.449,0.495c1.621,0.401,3.216,1.249,3.618,2.95
	c0.08,0.336,0.11,0.677,0.118,1.018c0.319,0.353,0.343,0.735-0.089,1.139c-0.219,1.131-0.786,2.201-1.596,3.031
	c-4.308,4.42-10.598,3.187-16.185,2.979c-0.19,1.465-0.73,3.016-1.03,4.269c-1.009,4.208-2.121,8.391-3.246,12.568
	c29.584,0.099,59.168,0.224,88.753,0.228c1.944,0-0.284,1.383-1.197,1.383c-3.821,0-7.644-0.014-11.466-0.018
	c0.126,0.141,0.193,0.326,0.163,0.572c-0.378,3.07-1.134,6.152-1.928,9.205c6.929-1.044,13.367-0.983,19.016-0.366
	c1.439,0.112,2.873,0.255,4.29,0.468c3.8,0.572,7.589,1.565,11.309,2.902c4.553,1.504,7.178,2.879,7.178,2.879h0.666l-0.167,0.408
	c11.534,5.758,21.896,14.647,29.047,24.512c4.802,6.624,8.331,14.109,10.591,21.986l0.529,1.094c0,0,0.026,0.41,0.072,1.131
	C504.4,399.583,505.055,409.001,504.049,418.2z M219.128,443.226c-0.388,0.549-0.795,1.08-1.201,1.611l0.787-0.693
	C218.714,444.144,218.867,443.821,219.128,443.226z M200.357,360.504c-1.938-1.294-3.918-2.486-5.936-3.573
	c-3.151,7.014-6.284,14.037-9.389,21.072c-2.248,5.096-4.491,10.193-6.688,15.313c-0.664,1.547-2.525,4.715-2.518,6.061
	c-0.033-0.016-0.065-0.031-0.099-0.047c0.061,0.444-0.258,0.937-1.104,1.106c-0.004,0.001-0.007,0.001-0.011,0.002
	c-0.146,0.029-0.31,0.048-0.475,0.054c0.652,0.569,1.237,1.236,1.716,2.032c2.761,4.589,1.824,10.982-3.143,13.68
	c-4.81,2.612-11.81,2.741-15.027-2.456c-3.116-5.031-2.013-11.277,3.235-14.373c0.132-0.078,0.284-0.134,0.445-0.172
	c0.103-0.061,0.218-0.119,0.359-0.174c3.492-1.341,7.926-1.408,11.178,0.558c0.014-1.958,1.947-4.829,2.687-6.546
	c2.318-5.391,4.679-10.766,7.051-16.133c3.124-7.069,6.277-14.126,9.444-21.176c-6.852-3.34-14.16-5.347-22.011-5.316
	c-8.712,0.035-18.772,0.393-27.314,3.324c-1.034,0.39-2.098,0.809-3.175,1.256c-0.205,0.091-0.415,0.174-0.617,0.27
	c-0.088,0.041-0.178,0.075-0.267,0.102c-2.108,0.896-4.249,1.883-6.314,2.934c-13.781,8.674-22.935,24.159-25.182,40.197
	c-2.183,15.573,2.13,31.517,11.371,44.231c6.696,9.214,15.708,17.091,26.522,21.046c12.381,4.527,25.311,4.087,37.938,0.715
	c20.848-5.567,37.481-19.371,42.03-41.127C230.188,398.868,221.507,374.611,200.357,360.504z M162.956,400.54
	c-0.109,0.042-0.219,0.069-0.329,0.09c-8.467,5.248-1.157,19.502,8.074,14.487C179.481,410.348,171.929,397.092,162.956,400.54z
	 M356.868,305.804c-1.181-0.063-2.381-0.131-3.377-0.189C354.61,305.723,355.755,305.81,356.868,305.804z M330.486,147.437
	c0.748-0.207,1.544-0.094,1.585,0.512c0.005,0.076,0.006,0.158,0.011,0.236c0.13,0.063,0.262,0.119,0.391,0.183
	c0.38,0.188,0.31,0.446,0.027,0.688c0.178,0.066,0.302,0.113,0.377,0.141c13.319-15.123-5.246-33.042-21.532-34.547
	c-10.012-0.926-23.567,0.505-28.924,10.311c-2.747,5.029-4.295,12.176,2.455,13.326c0.412-0.174,0.83-0.289,1.078-0.266
	C300.998,139.435,316.599,141.103,330.486,147.437z M313.735,171.672c3.758-2.521,7.966-4.61,11.92-5.788
	c-0.275-0.258-0.619-0.408-1.032-0.548c-0.17-0.058-0.303-0.145-0.401-0.248c-3.907,0.204-8.804-2.329-11.178-3.978
	c-0.893-0.618,0.216-1.527,0.894-1.666c4.521-0.928,3.018-5.229,0.474-7.59c-0.807-0.748-3.105-2.677-4.424-1.889
	c-0.451,0.605-0.901,1.336-1.314,2.074c-0.438,1.281-0.514,2.704-0.575,4.039c-0.027,0.602-0.818,1.024-1.569,1.104
	c-0.621,0.181-1.299,0.118-1.564-0.343c-2.637-4.582-5.378-10.257-2.27-15.214c-4.356-0.681-8.744-1.19-13.111-1.634
	c0,2.652,0,5.304,0,7.955c0,0.404-0.575,0.718-1.213,0.891c-1.293,1.39-2.85,2.534-4.137,3.93c-0.502,0.545-1.436,1.384-1.434,2.2
	c0.002,0.986,2.111,1.081,2.736,1.165c0.61,0.082,0.891,0.35,0.94,0.673c0.008,0.017,0.021,0.031,0.022,0.05
	c0.982,7.922,7.949,16.453,16.447,14.755C305.949,171.012,311.138,169.171,313.735,171.672z M255.317,253.483
	c0.879,4.92,3.019,7.541,8.031,7.051c-0.064-0.088-0.138-0.163-0.199-0.256c-0.696-1.043,2.111-2.02,2.684-1.16
	c3.84,5.757,13.551,1.697,18.425-0.373c6.652-2.826,13.07-6.361,18.981-10.528c0.479-0.337,0.934-0.696,1.394-1.05
	c1.392-1.071,2.702-2.215,3.938-3.424c0.835-0.816,1.649-1.651,2.422-2.522c0.006-0.183,0.014-0.369,0.016-0.548
	c0.005-0.481,0.637-0.861,1.311-1.005c9.905-12.086,14.689-28.601,21.059-42.388c0.42-0.91,3.322-1.215,2.711,0.109
	c-3.191,6.91-5.199,14.338-8.615,21.143c-2.989,5.955-6.314,11.874-10.002,17.425c-1.162,1.749-2.343,3.349-3.57,4.836
	c-0.26,9.376-5.434,26.511,1.973,34.374c0.221,0.084,0.344,0.219,0.388,0.381c0.962,0.928,2.106,1.719,3.49,2.326
	c7.049,3.091,16.664,2.385,24.265,2.312c1.05-0.011,2.129-0.024,3.224-0.05c4.462-0.104,9.216-0.415,13.591-1.599
	c2.42-0.655,4.725-1.574,6.797-2.876c8.733-5.486,9.218-16.021,7.878-25.389c-0.436-3.046-1.051-6.047-1.801-9.014
	c-0.762-3.012-1.662-5.986-2.656-8.934c-0.015,0-0.029,0-0.044,0c-0.025,0-0.052,0-0.078,0c-1.603,0-1.526-1.417-0.544-1.94
	c-1.221-3.462-2.555-6.888-3.946-10.285c-3.568-8.708-6.939-17.6-11.407-25.899c-4.05-7.526-8.947-15.472-16.314-20.143
	c-0.479,0.045-0.942-0.066-1.196-0.412c-0.139-0.188-0.278-0.359-0.417-0.537c-0.03-0.017-0.058-0.035-0.087-0.051
	c-0.26-0.14-0.347-0.305-0.323-0.475c-4.042-4.903-8.489-5.971-14.629-2.799c-4.426,2.287-8.944,4.541-12.499,8.107
	c-0.037,0.037-0.082,0.068-0.125,0.102c0.038,0.107,0.057,0.229,0.033,0.375c-0.328,2.091-0.688,4.639-0.398,6.894
	c2.355-1.748,5.193-3.017,8.684-3.616c1.976-0.34,1.182,1.657-0.313,1.914c-3.262,0.561-5.848,1.893-7.955,3.749
	c-0.033,0.45-0.486,0.812-1.034,0.993c-7.534,7.854-8.277,23.063-12.814,32.205c-3.41,6.869-9.015,10.244-16.1,12.707
	c-3.996,1.389-7.991,2.77-11.986,4.155c-5.954,2.064-4.517,6.665-4.346,11.911c0.038,1.147-2.874,1.689-2.92,0.277
	c-0.048-1.477-0.441-3.755-0.476-5.939C255.442,245.518,254.454,248.663,255.317,253.483z M229.962,264.063
	c0.527,1.258,1.16,2.729,2.392,3.461c0.951,0.83,1.99,1.038,3.118,0.624c-0.49-2.536-2.135-4.606-2.926-7.034
	c-0.061-0.188,0.088-0.381,0.343-0.553c1.401-3.183,4.088-4.641,7.534-4.33c1.005,0.09,2.039,0.619,2.438,1.6
	c2.026,4.981,7.744,4.142,11.783,1.803c-1.119-1.219-1.881-2.968-2.225-5.373c-0.416-2.912-0.199-5.154,0.719-6.949
	c-0.078,0.014-0.153,0.022-0.219,0.022c-8.456-0.007-21.246-0.614-23.314,10.075C229.192,259.54,229.097,262.005,229.962,264.063z
	 M241.241,261.132c-0.357-0.468-0.622-0.791-0.826-1.351c-0.579-1.584-2.165-5.186-4.629,0.419c-0.053,0.12-0.147,0.23-0.269,0.328
	c0.45,1.232,1.463,2.812,2.138,4.348c0.813,0.15,1.757,0.254,2.471-0.186c0.983-0.605,1.428-1.646,1.68-2.727
	c0.017-0.072,0.057-0.141,0.107-0.207C241.659,261.573,241.425,261.372,241.241,261.132z M251.421,325.877
	c-2.355-4.996-3.702-10.267-2.437-15.34c3.253-13.033,18.995-18.115,29.991-22.692c10.529-4.385,21.759-11.977,33.479-12.721
	c-1.024-1.395-1.754-2.961-2.274-4.639c-0.061-0.194-0.12-0.389-0.175-0.586c-2.142-7.752,0.107-17.821,0.811-25.727
	c-2.823,2.826-5.963,5.27-9.739,7.623c-7.052,4.396-14.71,8.626-22.8,10.744c-4.318,1.131-10.533,2.339-14.089-1.048
	c-0.201,0.087-0.417,0.155-0.632,0.188c-3.099,0.456-5.667,0.241-7.573-0.935c-2.958,1.658-6.586,3.07-10.01,2.397
	c-0.514-0.101-1.113-0.218-1.718-0.376c-1.099,2.318-3.53,3.471-6.078,3.643c0.318,1.406,0.029,2.645-1.72,3.347
	c-5.339,2.146-10.046-3.483-10.048-8.368c-0.001-1.25,0.127-2.392,0.35-3.447c-2.177,1.182-4.195,2.738-3.542,5.734
	c1.184,5.433,5.59,8.405,8.12,12.979c0.995,1.796-0.903,3.953-1.71,5.484c-1.284,2.438-2.539,4.893-3.77,7.357
	c-5.999,12.015-11.695,24.182-17.311,36.382C222.838,325.877,237.129,325.877,251.421,325.877z M301.419,375.216
	c0-0.005,0.002-0.009,0.002-0.014c-0.16-0.07-0.286-0.174-0.346-0.328c-3.814-9.92-8.643-19.83-9.936-30.496
	c-1.094-9.033-1.402-17.618-5.365-25.842c-1.401,0.178-1.891-1.072-0.824-1.647c-0.203-0.751,2.416-1.624,2.92-0.7
	c0.002,0.004,0.004,0.007,0.005,0.01c16.293-3.238,33.237-3.035,49.259-7.562c4.355-1.229,9.408-2.947,13.99-5.31
	c0.813-0.459,1.764-0.994,2.809-1.578c2.605-1.591,4.957-3.424,6.784-5.546c4.653-5.402,5.661-11.976,7.076-18.651
	c-0.445,0.22-0.89,0.439-1.367,0.639c-7.771,3.234-16.36,3.811-24.692,3.752c-7.482-0.052-17.424,0.941-24.27-2.602
	c-1.184-0.612-2.201-1.327-3.091-2.119c-0.003,0-0.006,0-0.009,0c-7.037-0.271-13.822,3.085-20.009,6.066
	c-5.676,2.736-11.443,5.175-17.243,7.636c-10.773,4.571-28.053,11.015-25.294,25.769c1.958,10.469,9.108,19.097,14.984,27.656
	c7.459,10.865,10.673,23.611,17.173,34.975c0.199,0.348,0.16,0.679-0.016,0.959C289.132,380.434,301.579,381.181,301.419,375.216z
	 M305.552,324.132c0.328-2.908,0.653-5.816,0.977-8.725c-5.959,0.666-11.907,1.395-17.768,2.543
	c0.967,2.043,1.693,4.098,2.265,6.169c0.036-0.003,0.073-0.009,0.105-0.009C295.938,324.11,300.745,324.126,305.552,324.132z
	 M291.381,325.495c1.421,5.843,1.734,11.828,2.657,18.105c1.072,7.297,3.511,14.165,6.175,20.971
	c2.106-12.965,3.702-26.004,5.182-39.055C300.724,325.511,296.052,325.497,291.381,325.495z M292.203,401.233
	c-0.011-0.105-0.029-0.213-0.038-0.318c-0.09-1.079,1.51-1.748,2.371-1.441c2.54-2,4.938-4.161,7.131-6.521
	c0.374-0.402,1.152-0.554,1.779-0.478c0.004-0.426,0.387-0.826,0.881-1.064c-2.212-3.462-4.043-7.154-5.88-10.826
	c-3.866,1.148-8.894,1.259-12.683,1.215c-6.779,8.377-25.392,20.119-20.513,32.671C274.649,411.37,284.078,407.103,292.203,401.233z
	 M304.205,393.53c-0.04,0.059-0.081,0.116-0.14,0.179c-2.688,2.892-5.655,5.511-8.824,7.888c0.291,1.772,0.959,3.711,2.716,4.258
	c0.907,0.282,1.861,0.133,2.753-0.221c0.26-0.197,0.65-0.385,1.047-0.516c0.381-0.229,0.736-0.482,1.058-0.744
	C306.303,401.534,307.633,396.816,304.205,393.53z M292.629,403.468c-0.096,0.065-0.194,0.129-0.29,0.193
	c0.164,0.052,0.311,0.127,0.422,0.231C292.714,403.753,292.671,403.61,292.629,403.468z M306.558,446.487
	c-0.397,0.195-0.813,0.368-1.254,0.507c-6.694,2.106-14.835-1.113-21.443-2.247c-0.451-0.078-0.785-0.283-0.895-0.617
	c-5.944,4.7-13.889,7.124-12.59,16.502c0.353-0.24,0.773-0.414,1.152-0.414c11.676,0,23.353,0,35.029,0
	C306.558,455.641,306.558,451.063,306.558,446.487z M311.556,431.086c-2.775-1.308-5.199-3.403-6.932-6.423
	c-3.178-5.54-3.437-11.813-0.965-16.99c-0.361-0.188-0.728-0.367-1.098-0.538c-1.859,0.929-3.977,1.44-5.995,0.813
	c-1.804-0.561-2.903-1.867-3.567-3.437c-0.006,0.09-0.022,0.186-0.055,0.289c-3.885,12.393-3.255,25.627-6.908,38.072
	c5.322,1.065,11.301,3.135,16.646,2.584C309.132,444.792,310.531,436.397,311.556,431.086z M324.393,400.655
	c-0.076,0.301-0.156,0.599-0.231,0.898c-1.02,4.061-2.052,8.131-2.824,12.247c-0.207,1.107-0.43,2.231-0.508,3.358
	c0.76,0.01,1.346,0.317,0.89,0.979c-0.66,0.959-3.615,2.865-3.815,0.547c-0.006-0.061-0.002-0.123-0.007-0.186
	c-4.009-3.261-7.852-7-12.281-9.721c-2.882,7.489,1.508,16.781,8.546,20.628c0.069,0.027,0.132,0.061,0.188,0.101
	c4.625,2.447,10.358,2.551,15.918-1.719c5.969-4.585,7.706-14.33,3.147-20.557C331.08,404.043,327.913,401.765,324.393,400.655z
	 M318.092,415.295c0.273-1.692,0.742-3.389,1.096-4.962c0.772-3.44,1.601-6.869,2.46-10.291c-2.787-0.376-5.708-0.038-8.557,1.133
	c-0.212,0.087-0.429,0.127-0.639,0.137c-0.072,0.053-0.148,0.105-0.238,0.156c-2.527,1.43-4.344,3.217-5.557,5.199
	C310.828,408.952,314.458,412.192,318.092,415.295z M342.028,325.602c-11.24-0.037-22.481-0.062-33.723-0.08
	c-1.673,14.731-3.483,29.447-6.025,44.058c-0.007,0.04-0.023,0.076-0.036,0.115c0.583,1.465,1.163,2.932,1.729,4.402
	c0.004,0.01,0.002,0.018,0.005,0.027c0.201,0.055,0.335,0.155,0.339,0.314c0.063,2.335-1.195,3.937-3.158,5.037
	c0.024,0.033,0.053,0.064,0.072,0.104c1.885,3.768,3.746,7.561,6.055,11.091c0.347,0.531-0.068,1.032-0.673,1.325
	c2.963,2.917,3.101,6.822,1.344,10.086c0.909-0.782,1.916-1.497,3.026-2.125c0.249-0.141,0.504-0.211,0.745-0.229
	c0.045-0.021,0.082-0.044,0.132-0.064c3.193-1.313,6.788-1.861,10.287-1.586c2.151-8.424,4.495-16.803,6.804-25.178
	c4.002-14.521,8.104-29.016,12.063-43.549C341.354,328.102,341.689,326.851,342.028,325.602z M345.241,313.31
	c0.396-1.623,1.359-4.197,1.443-6.055c-0.811,0.333-1.62,0.654-2.426,0.959c-11.172,4.234-22.972,5.561-34.783,6.864
	c-0.001,0.007,0.001,0.013,0,0.021c-0.335,3.013-0.672,6.025-1.013,9.038c11.313,0.018,22.627,0.042,33.94,0.079
	C343.383,320.589,344.349,316.958,345.241,313.31z M361.744,438.856c-1.294-2.857-2.574-5.878-3.81-8.983
	C359.025,432.938,360.3,435.938,361.744,438.856z M374.22,352.999c3.137-2.928,6.558-5.568,10.27-7.848
	c0.746-0.551,1.683-1.078,2.753-1.58c0.45-0.246,0.885-0.512,1.343-0.748c0.303-0.156,0.615-0.212,0.9-0.201
	c0.881-0.338,1.806-0.66,2.753-0.967c0.071-0.043,0.144-0.086,0.229-0.127c7.205-3.428,15.669-4.588,23.524-5.436
	c0.205-0.021,0.414-0.043,0.62-0.064c0.811-3.112,1.59-6.256,1.976-9.389c0.043-0.348,0.309-0.628,0.661-0.826
	c-23.536-0.029-47.072-0.11-70.608-0.191c2.612,2.045,5.2,5.848,6.52,7.232C361.535,339.549,367.876,346.275,374.22,352.999z
	 M418.157,402.592c-4.095-3.739-8.068-7.636-11.973-11.616c-0.646,2.688-1.293,5.375-1.934,8.064
	c-0.745,3.131-1.493,6.263-2.209,9.401c-0.08,0.35-0.25,1.032-0.41,1.692c4.915,0,9.829,0,14.743,0
	C416.011,407.46,416.601,404.792,418.157,402.592z M407.173,374.979c-3.328,0.743-6.226,2.156-8.74,4.058
	c2.051,2.197,4.109,4.386,6.188,6.554C405.472,382.053,406.319,378.515,407.173,374.979z M407.454,372.814
	c0.088-0.017,0.159-0.004,0.242-0.01c0.173-0.718,0.344-1.436,0.518-2.153c1.533-6.355,3.065-12.711,4.59-19.067
	c-1.437,0.228-2.857,0.502-4.256,0.827c-5.52,1.787-12.711,4.844-18.444,8.232c-1.698,1.279-3.313,2.663-4.842,4.145
	c3.877,4.193,7.75,8.412,11.65,12.611C399.925,375.181,403.415,373.563,407.454,372.814z M367.856,410.134
	c10.281,0,20.561,0,30.841,0c0.156-0.527,0.323-1.031,0.417-1.441c0.719-3.138,1.463-6.271,2.209-9.402
	c0.848-3.557,1.711-7.109,2.565-10.664c-2.519-2.605-5.011-5.241-7.485-7.895c-5.415,5.063-8.814,12.469-10.861,19.683
	c-0.354,1.253-3.322,1.592-2.934,0.225c2.279-8.038,6.146-16.112,12.249-21.567c-3.836-4.129-7.645-8.28-11.462-12.396
	c-2.811,3.008-5.291,6.337-7.395,9.899c-2.536,5.019-4.903,10.846-6.566,16.13c-0.471,1.916-0.859,3.85-1.132,5.793
	C367.76,402.372,367.62,406.269,367.856,410.134z M450.039,464.649c-0.22,0.073-0.44,0.142-0.661,0.213l0.336-0.053L450.039,464.649
	z M461.456,360.504c-9.168-6.115-19.186-10.132-30.283-10.089c-4.883,0.02-10.188,0.143-15.414,0.76
	c-1.537,6.409-3.071,12.818-4.617,19.225c-1.412,5.849-2.823,11.697-4.23,17.547c4.238,4.363,8.558,8.628,13.004,12.73
	c0.514-0.442,1.072-0.856,1.693-1.223c0.141-0.083,0.305-0.142,0.479-0.18c0.104-0.063,0.222-0.123,0.367-0.18
	c5.107-1.966,12.075-1.373,15.178,3.784c2.961,4.923,1.99,11.835-3.352,14.738c-5.182,2.816-12.688,2.94-16.152-2.655
	c-0.693-1.119-1.182-2.295-1.49-3.484c-5.104,0-10.209,0-15.314,0c-0.033,0.164-0.056,0.291-0.05,0.32
	c-0.007,0-0.015-0.002-0.022-0.002c0.148,0.268,0.058,0.614-0.466,0.993c-0.005,0.003-0.009,0.006-0.013,0.009
	c-0.535,0.388-2.182,0.768-2.396-0.225c-0.07-0.326-0.053-0.702,0.006-1.096c-10.137,0-20.273,0-30.411,0
	c0.942,11.197,5.028,22.066,11.703,31.251c1.97,2.71,4.145,5.299,6.501,7.712c1.629,1.597,3.549,3.363,5.722,5.18
	c4.313,3.432,9.095,6.251,14.3,8.154c12.381,4.527,25.311,4.087,37.938,0.715c20.848-5.567,37.481-19.371,42.03-41.127
	C491.285,398.868,482.604,374.611,461.456,360.504z M432.201,416.567c9.687-5.264,1.358-19.764-8.517-15.961
	c-0.117,0.045-0.237,0.073-0.356,0.094c-0.721,0.443-1.335,0.945-1.856,1.492c0.018,0.144-0.157,0.318-0.43,0.485
	C415.588,409.354,423.06,421.537,432.201,416.567z M148.139,371.281c-11.625,4.479-20.113,13.679-20.444,26.55
	c-0.017,0.67,2.873,0.213,2.898-0.777c0.303-11.798,7.82-20.688,18.618-24.849C151.122,371.469,149.341,370.818,148.139,371.281z
	 M179.091,451.257c-0.875,0.02-3.148,1.379-1.211,1.336c14.732-0.328,26.067-9.184,31.852-22.484
	c0.281-0.646-2.521-0.349-2.871,0.457C201.776,442.256,192.364,450.962,179.091,451.257z M442.562,453.584
	c-1.693,0.418-1.471,1.206,0.211,0.791c19.642-4.849,30.592-25.474,34.238-43.958c0.041-0.207-2.73-0.073-2.898,0.777
	C470.793,428.026,460.712,449.103,442.562,453.584z" fill="#6770d2"></path>
</svg>