<?xml version="1.0" standalone="no"?>
<!DOCTYPE svg PUBLIC "-//W3C//DTD SVG 20010904//EN"
 "http://www.w3.org/TR/2001/REC-SVG-20010904/DTD/svg10.dtd">
<svg version="1.0" xmlns="http://www.w3.org/2000/svg"
 width="3486.000000pt" height="1203.000000pt" viewBox="0 0 3486.000000 1203.000000"
 preserveAspectRatio="xMidYMid meet">

<g transform="translate(0.000000,1203.000000) scale(0.100000,-0.100000)"
fill="#000000" stroke="none">
<path d="M0 6015 l0 -6015 17430 0 17430 0 0 6015 0 6015 -17430 0 -17430 0 0
-6015z m6497 3549 c189 -29 417 -85 593 -146 l125 -43 13 -55 c21 -88 10 -250
-21 -332 -58 -150 -159 -263 -298 -333 -399 -199 -869 86 -873 530 -1 141 38
263 120 369 l36 48 72 -7 c39 -3 144 -17 233 -31z m-2092 -336 c4 -17 7 -75 7
-127 -3 -284 -164 -535 -425 -661 -110 -53 -199 -73 -327 -73 -115 0 -191 16
-294 60 l-64 28 56 60 c189 199 438 400 693 558 103 63 327 187 341 187 3 0
10 -14 13 -32z m1058 11 c176 -27 331 -111 459 -248 207 -220 266 -543 152
-830 -121 -306 -438 -507 -769 -488 -331 19 -605 227 -711 542 -36 108 -45
294 -19 411 88 405 481 676 888 613z m2127 -34 c211 -106 493 -297 690 -467
42 -37 43 -39 29 -65 -7 -16 -45 -60 -84 -98 -104 -104 -199 -145 -340 -145
-135 0 -250 47 -344 139 -168 167 -196 423 -66 618 19 29 38 53 40 53 3 0 37
-16 75 -35z m1052 -834 c431 -496 717 -1100 827 -1741 25 -146 46 -358 37
-368 -14 -13 -158 -14 -268 -2 -554 61 -1016 450 -1162 979 -35 125 -47 218
-47 365 1 346 126 666 357 915 l57 62 55 -53 c29 -29 94 -100 144 -157z
m-1498 97 c32 -5 91 -21 130 -35 271 -96 475 -313 562 -598 25 -81 28 -105 28
-245 0 -140 -3 -164 -27 -243 -94 -308 -318 -531 -622 -619 -108 -31 -352 -33
-460 -4 -512 137 -794 669 -620 1169 40 112 102 212 193 308 217 229 498 321
816 267z m-2911 -294 c218 -56 393 -238 443 -461 19 -87 15 -215 -10 -296 -64
-202 -215 -351 -422 -413 -80 -24 -238 -24 -319 0 -213 64 -370 227 -425 442
-80 311 109 633 425 725 78 23 227 24 308 3z m-1197 -219 c228 -114 364 -333
364 -585 0 -252 -136 -473 -360 -584 -175 -87 -354 -95 -529 -25 -42 17 -77
32 -79 33 -6 6 56 239 94 351 92 278 204 517 361 773 28 45 52 72 63 72 9 0
48 -16 86 -35z m2786 -339 c73 -35 150 -117 177 -191 28 -75 28 -185 0 -259
-28 -77 -96 -148 -177 -188 -60 -30 -75 -33 -152 -33 -71 0 -95 5 -142 27
-234 109 -286 406 -101 579 84 79 142 100 258 96 62 -3 93 -10 137 -31z m-681
-556 c210 -51 395 -200 489 -395 59 -123 74 -190 74 -335 1 -145 -18 -221 -87
-355 -58 -112 -190 -244 -302 -302 -134 -69 -210 -88 -355 -87 -145 0 -212 15
-335 74 -256 124 -416 380 -417 670 0 131 19 215 77 335 155 319 504 480 856
395z m-1176 -228 c150 -74 156 -293 10 -370 -89 -46 -175 -33 -245 38 -88 87
-88 203 0 291 68 68 152 83 235 41z m2579 -132 c113 -29 190 -73 277 -160 119
-118 179 -260 179 -425 0 -283 -198 -529 -477 -591 -206 -46 -439 31 -579 190
-87 99 -154 272 -154 401 0 76 26 181 63 260 126 262 412 397 691 325z m-3415
-11 c227 -52 390 -290 353 -515 -22 -131 -113 -269 -220 -331 -189 -111 -430
-74 -579 91 -228 252 -105 660 226 752 57 15 161 17 220 3z m4571 -84 c213
-75 298 -328 176 -520 -108 -168 -322 -212 -491 -100 -206 137 -205 439 0 581
91 62 208 77 315 39z m1042 -380 c38 -8 105 -29 150 -48 260 -106 454 -326
530 -602 30 -110 30 -325 0 -435 -152 -561 -746 -837 -1259 -585 -339 167
-539 529 -493 892 27 216 108 385 256 534 217 220 506 306 816 244z m-4807
-70 c120 -31 227 -138 255 -256 30 -124 -15 -267 -111 -353 -66 -59 -138 -86
-234 -86 -99 0 -169 27 -240 91 -201 184 -128 516 133 600 71 22 121 23 197 4z
m3296 -515 c132 -25 251 -119 312 -247 30 -63 32 -76 32 -173 0 -97 -2 -110
-32 -172 -44 -94 -109 -160 -202 -206 -73 -36 -78 -37 -185 -37 -104 0 -115 2
-178 32 -268 127 -331 463 -127 678 99 105 240 151 380 125z m-4006 -15 c212
-54 387 -227 441 -436 20 -77 22 -214 5 -289 -48 -202 -215 -380 -416 -443
-105 -32 -253 -30 -358 6 -117 41 -248 132 -282 196 -29 58 -135 386 -135 420
0 20 7 64 15 99 52 219 225 394 444 447 76 18 214 18 286 0z m2640 -175 c291
-28 545 -148 741 -352 243 -252 353 -565 323 -913 -27 -313 -182 -605 -424
-802 -211 -171 -418 -248 -691 -260 -319 -13 -617 98 -848 317 -381 361 -475
912 -234 1382 186 363 540 598 953 631 22 2 47 4 55 5 8 1 65 -3 125 -8z
m-1523 -117 c202 -95 283 -328 183 -530 -143 -290 -557 -290 -700 0 -78 157
-49 333 76 458 75 75 170 110 289 106 71 -2 97 -8 152 -34z m3554 -787 c163
-52 309 -178 385 -331 185 -376 -19 -822 -426 -930 -79 -21 -241 -21 -320 -1
-184 49 -345 177 -424 338 -54 110 -71 182 -71 298 0 199 67 350 214 488 78
72 200 136 303 157 99 21 238 13 339 -19z m3831 -459 l343 -408 0 410 0 411
80 0 80 0 0 -540 0 -540 -79 0 -79 0 -304 364 -303 364 -3 -364 -2 -364 -80 0
-80 0 0 463 0 463 -60 72 c-33 39 -60 74 -60 77 0 3 46 4 102 3 l102 -3 343
-408z m1543 -127 l0 -540 -75 0 -75 0 0 540 0 540 75 0 75 0 0 -540z m1700
460 l0 -80 -190 0 -190 0 0 -460 0 -460 -80 0 -80 0 0 460 0 460 -195 0 -195
0 0 80 0 80 465 0 465 0 0 -80z m932 -313 l3 -393 265 389 c146 214 270 391
276 394 6 2 50 3 98 1 l88 -3 -176 -253 -176 -252 100 -149 c54 -82 114 -166
132 -187 38 -43 98 -73 146 -74 l32 0 0 -81 0 -82 -83 5 c-143 7 -179 39 -342
302 l-78 126 -145 -215 -145 -215 -79 0 -78 0 0 540 0 540 80 0 80 0 2 -393z
m-11937 348 c149 -40 307 -145 399 -263 105 -137 157 -289 158 -462 0 -133
-19 -217 -79 -340 -39 -82 -59 -108 -142 -190 -81 -82 -110 -103 -191 -143
-52 -26 -102 -47 -110 -47 -21 0 -185 113 -315 217 -195 156 -445 411 -598
611 l-48 62 17 53 c58 179 203 354 359 434 87 44 159 70 233 83 68 13 247 4
317 -15z m3156 -1092 c80 -39 150 -111 187 -191 24 -50 27 -69 27 -162 0 -93
-3 -112 -27 -162 -37 -80 -107 -152 -187 -191 -61 -30 -72 -32 -171 -32 -93 0
-112 3 -162 27 -80 37 -152 107 -191 187 -30 61 -32 72 -32 171 0 93 3 112 26
161 45 96 116 163 218 206 48 20 70 23 151 21 84 -3 103 -7 161 -35z m-2209
-81 c120 -59 197 -173 206 -306 5 -85 -12 -148 -60 -220 -37 -56 -121 -119
-183 -136 -42 -12 -51 -11 -138 20 -50 18 -129 49 -174 68 l-83 34 -32 66
c-30 60 -33 75 -33 152 1 95 20 150 77 222 35 45 116 101 169 117 59 18 198 8
251 -17z m1138 -306 c116 -40 203 -100 282 -193 45 -55 101 -160 116 -218 26
-102 33 -91 -66 -104 -189 -24 -425 -32 -613 -22 -182 11 -486 47 -509 61 -8
5 -5 28 14 84 72 212 237 360 461 412 86 20 227 11 315 -20z"/>
</g>
</svg>
