<?xml version="1.0" standalone="no"?>
<!DOCTYPE svg PUBLIC "-//W3C//DTD SVG 20010904//EN"
 "http://www.w3.org/TR/2001/REC-SVG-20010904/DTD/svg10.dtd">
<svg version="1.0" xmlns="http://www.w3.org/2000/svg"
 width="3162.000000pt" height="879.000000pt" viewBox="0 0 3162.000000 879.000000"
 preserveAspectRatio="xMidYMid meet">

<g transform="translate(0.000000,879.000000) scale(0.100000,-0.100000)"
fill="#000000" stroke="none">
<path d="M4543 7943 c-48 -62 -70 -104 -96 -183 -34 -104 -41 -187 -23 -290
81 -457 621 -655 983 -361 72 60 151 172 183 262 28 81 38 259 18 334 l-14 50
-169 57 c-243 81 -506 135 -786 163 l-66 7 -30 -39z"/>
<path d="M2675 7597 c-203 -107 -413 -241 -568 -364 -101 -80 -279 -238 -362
-323 -78 -79 -79 -75 15 -111 114 -43 172 -54 295 -54 140 0 218 20 350 88 94
49 229 177 284 270 44 75 85 192 101 287 13 74 7 237 -8 252 -4 4 -52 -17
-107 -45z"/>
<path d="M3600 7619 c-255 -43 -475 -209 -586 -444 -54 -116 -74 -207 -74
-343 0 -303 163 -563 435 -698 131 -64 196 -79 350 -79 154 0 219 15 350 79
272 135 435 395 435 698 0 136 -20 227 -74 343 -149 317 -494 500 -836 444z"/>
<path d="M5855 7568 c-148 -224 -87 -528 135 -676 161 -108 384 -111 537 -7
63 42 131 112 157 160 l19 35 -43 38 c-147 127 -359 278 -533 381 -86 50 -221
121 -232 121 -2 0 -20 -24 -40 -52z"/>
<path d="M6745 6880 c-128 -146 -209 -285 -269 -462 -49 -146 -68 -267 -69
-428 -1 -289 71 -527 232 -767 211 -315 545 -525 928 -582 82 -12 320 -15 326
-3 6 12 -20 243 -43 375 -89 518 -293 1011 -604 1457 -119 171 -394 491 -420
489 -6 0 -42 -36 -81 -79z"/>
<path d="M5134 6836 c-269 -70 -508 -279 -604 -528 -86 -224 -90 -431 -10
-649 99 -272 334 -483 618 -555 113 -29 289 -33 400 -9 366 77 643 368 703
739 15 94 7 265 -16 356 -10 36 -38 110 -64 165 -121 254 -347 432 -623 490
-109 23 -294 19 -404 -9z"/>
<path d="M10405 6844 c-109 -11 -258 -38 -334 -60 -181 -53 -347 -166 -420
-288 -61 -102 -82 -177 -88 -311 -9 -213 39 -354 165 -486 130 -138 275 -204
635 -294 292 -72 401 -117 466 -191 58 -65 33 -139 -57 -168 -114 -37 -361
-46 -732 -26 -162 8 -400 37 -467 56 l-23 6 0 -270 0 -270 53 -12 c234 -50
531 -75 800 -67 285 8 470 46 647 134 185 92 312 254 346 441 40 227 -15 433
-153 571 -119 118 -233 170 -568 256 -463 118 -565 172 -565 295 0 55 21 80
90 107 37 14 90 17 306 21 313 4 578 -17 797 -64 l27 -6 0 270 0 270 -67 16
c-110 25 -237 45 -346 55 -119 11 -454 21 -512 15z"/>
<path d="M14901 6840 c-427 -54 -747 -269 -921 -619 -86 -172 -122 -337 -121
-555 0 -87 7 -189 17 -245 82 -495 434 -848 934 -937 128 -23 372 -23 500 0
491 88 828 409 931 887 30 135 32 395 5 533 -64 329 -219 572 -476 746 -115
78 -269 139 -433 171 -116 23 -331 32 -436 19z m340 -545 c233 -49 390 -220
439 -475 18 -93 13 -285 -9 -371 -60 -235 -214 -387 -441 -435 -116 -24 -302
-15 -403 20 -192 65 -319 205 -373 411 -28 108 -26 334 4 440 61 213 199 351
404 405 92 24 276 26 379 5z"/>
<path d="M21775 6840 c-459 -52 -715 -220 -791 -519 -23 -93 -15 -310 15 -403
77 -240 303 -401 691 -492 323 -77 472 -132 537 -201 82 -86 39 -165 -104
-196 -179 -38 -927 -10 -1113 41 -19 6 -38 10 -42 10 -5 0 -8 -121 -8 -269 l0
-269 48 -11 c179 -41 479 -71 722 -71 610 0 972 183 1067 541 22 85 22 261 -1
349 -37 146 -114 254 -240 338 -107 71 -198 106 -476 178 -438 113 -537 159
-561 261 -13 57 5 99 50 123 71 36 156 43 464 37 285 -5 448 -18 624 -52 43
-8 79 -15 81 -15 1 0 2 121 2 269 l0 269 -72 16 c-116 26 -231 45 -341 55
-156 15 -463 21 -552 11z"/>
<path d="M11730 5655 l0 -1175 285 0 285 0 0 405 0 405 321 0 c349 0 396 5
532 60 112 46 177 90 273 185 77 76 98 104 137 185 64 131 81 201 80 335 0
124 -18 213 -62 309 -97 214 -285 368 -536 438 -78 22 -94 22 -697 26 l-618 3
0 -1176z m1240 600 c90 -61 127 -199 81 -301 -23 -49 -88 -107 -140 -122 -25
-8 -136 -12 -325 -12 l-286 0 0 235 0 236 313 -3 312 -3 45 -30z"/>
<path d="M16630 5655 l0 -1175 285 0 285 0 2 549 3 550 136 -182 c75 -100 257
-345 404 -545 147 -200 273 -366 279 -368 6 -2 165 -3 353 -2 l342 3 -229 305
c-126 168 -271 361 -323 430 l-93 125 76 43 c155 87 289 244 350 410 132 361
-32 759 -385 937 -180 90 -164 89 -867 93 l-618 3 0 -1176z m1201 619 c72 -20
129 -67 159 -131 18 -38 24 -66 24 -133 1 -74 -3 -92 -28 -143 -30 -63 -85
-108 -156 -127 -19 -5 -169 -10 -332 -10 l-298 0 0 280 0 280 287 0 c234 0
297 -3 344 -16z"/>
<path d="M18822 6563 l3 -268 343 -3 342 -2 0 -905 0 -905 290 0 290 0 0 905
0 905 343 2 342 3 3 268 2 267 -980 0 -980 0 2 -267z"/>
<path d="M23980 5655 l0 -1175 285 0 285 0 0 450 0 450 425 0 425 0 0 -450 0
-450 285 0 285 0 0 1175 0 1175 -285 0 -285 0 0 -455 0 -455 -425 0 -425 0 0
455 0 455 -285 0 -285 0 0 -1175z"/>
<path d="M26380 6091 c0 -465 4 -769 11 -818 14 -103 65 -252 120 -349 57
-101 197 -244 301 -308 86 -53 224 -106 344 -132 109 -24 348 -24 467 0 391
76 654 315 755 686 l26 95 4 783 3 782 -285 0 -285 0 -4 -742 c-3 -528 -7
-755 -16 -786 -41 -153 -147 -258 -292 -291 -24 -6 -88 -11 -142 -11 -240 0
-394 128 -427 355 -6 42 -10 355 -10 773 l0 702 -285 0 -285 0 0 -739z"/>
<path d="M28810 5655 l0 -1176 688 3 c680 4 688 4 761 26 554 169 733 789 330
1139 l-45 38 49 60 c57 70 111 178 126 253 17 82 13 200 -9 288 -30 116 -89
213 -195 320 -76 76 -105 97 -185 137 -169 83 -141 80 -872 84 l-648 4 0
-1176z m1261 612 c97 -65 114 -195 37 -283 -57 -64 -54 -64 -403 -64 l-315 0
0 185 0 185 324 0 c319 0 323 0 357 -23z m69 -907 c25 -13 49 -37 66 -65 23
-40 26 -54 22 -110 -4 -72 -23 -105 -78 -142 -33 -23 -36 -23 -396 -23 l-364
0 0 180 0 180 355 0 c336 0 358 -1 395 -20z"/>
<path d="M2316 6554 c-152 -37 -318 -170 -389 -311 -153 -309 -30 -673 278
-820 176 -83 353 -81 530 6 101 50 176 116 235 207 71 108 95 194 95 334 0
174 -46 289 -166 414 -80 85 -184 146 -290 171 -79 18 -215 18 -293 -1z"/>
<path d="M1267 6298 c-158 -256 -274 -506 -365 -788 -34 -104 -92 -315 -92
-334 0 -12 163 -65 234 -76 320 -48 639 171 721 495 19 77 19 234 0 310 -35
133 -122 270 -222 350 -62 49 -185 115 -213 115 -11 0 -35 -27 -63 -72z"/>
<path d="M3933 6011 c-300 -111 -319 -524 -30 -657 53 -25 75 -29 147 -29 76
0 93 3 152 33 167 82 243 271 178 445 -28 76 -104 158 -178 193 -77 37 -193
43 -269 15z"/>
<path d="M3150 5440 c-41 -11 -113 -39 -160 -62 -69 -34 -103 -60 -180 -138
-136 -135 -199 -263 -219 -445 -49 -428 272 -807 704 -832 450 -26 818 342
792 792 -19 330 -245 604 -564 686 -102 26 -269 25 -373 -1z"/>
<path d="M2165 5213 c-75 -39 -116 -106 -116 -188 0 -67 22 -116 73 -160 85
-72 204 -66 282 14 98 101 71 267 -55 331 -47 25 -141 26 -184 3z"/>
<path d="M4685 5094 c-112 -24 -199 -62 -283 -125 -147 -112 -242 -323 -228
-511 33 -458 528 -714 922 -477 123 74 236 230 269 371 19 81 19 206 0 287
-51 214 -243 400 -460 446 -66 14 -175 18 -220 9z"/>
<path d="M1289 5066 c-337 -93 -456 -510 -217 -762 91 -96 201 -144 331 -144
133 0 242 46 334 139 133 134 168 345 86 519 -53 113 -190 223 -314 251 -59
14 -163 12 -220 -3z"/>
<path d="M5849 4987 c-79 -27 -145 -78 -187 -144 -42 -67 -55 -118 -50 -204
10 -192 158 -339 341 -339 277 1 446 274 322 520 -27 52 -94 124 -139 147 -90
46 -189 53 -287 20z"/>
<path d="M6790 4615 c-232 -44 -428 -161 -562 -335 -283 -367 -239 -884 102
-1203 168 -157 370 -237 598 -237 54 0 125 5 158 11 287 50 535 237 655 493
63 136 83 229 84 391 0 156 -9 205 -62 335 -111 271 -339 467 -623 535 -94 23
-260 27 -350 10z"/>
<path d="M2130 4535 c-163 -45 -269 -197 -258 -371 6 -95 41 -167 113 -233
177 -161 452 -109 560 106 27 52 30 68 30 153 0 84 -3 102 -28 152 -76 155
-254 238 -417 193z"/>
<path d="M5450 4019 c-123 -24 -245 -122 -301 -243 -118 -251 45 -551 322
-595 254 -41 489 160 489 417 0 126 -42 223 -135 311 -103 98 -237 137 -375
110z"/>
<path d="M1316 4004 c-166 -40 -316 -161 -394 -318 -34 -69 -62 -169 -62 -227
0 -30 45 -175 120 -389 27 -75 164 -183 288 -226 306 -106 654 62 762 368 28
79 43 191 35 257 -30 259 -207 469 -450 531 -92 23 -212 25 -299 4z"/>
<path d="M3980 3825 c-492 -69 -900 -462 -985 -949 -19 -113 -19 -299 0 -411
73 -420 373 -770 776 -908 224 -77 516 -77 744 -1 530 177 868 709 794 1251
-73 539 -475 948 -999 1019 -126 16 -204 16 -330 -1z"/>
<path d="M2445 3737 c-184 -62 -297 -226 -282 -410 15 -181 150 -326 333 -358
142 -25 300 43 384 166 137 199 61 476 -160 579 -53 25 -80 31 -150 33 -52 2
-101 -2 -125 -10z"/>
<path d="M5935 2944 c-240 -53 -445 -252 -500 -486 -19 -82 -19 -238 0 -313
59 -233 241 -417 475 -481 86 -23 242 -23 330 0 156 42 319 164 398 298 82
139 112 326 78 482 -50 223 -223 413 -440 482 -104 33 -241 40 -341 18z"/>
<path d="M9560 2875 c0 -3 27 -38 60 -77 l60 -72 0 -463 0 -463 80 0 80 0 2
364 3 364 303 -364 304 -364 79 0 79 0 0 540 0 540 -80 0 -80 0 0 -411 0 -410
-343 408 -343 408 -102 3 c-56 1 -102 0 -102 -3z"/>
<path d="M11500 2340 l0 -540 75 0 75 0 0 540 0 540 -75 0 -75 0 0 -540z"/>
<path d="M12430 2800 l0 -80 190 0 190 0 0 -460 0 -460 80 0 80 0 0 460 0 460
190 0 190 0 0 80 0 80 -460 0 -460 0 0 -80z"/>
<path d="M14120 2340 l0 -540 80 0 80 0 143 215 144 215 87 -140 c157 -253
189 -280 334 -288 l82 -5 0 82 0 81 -35 0 c-47 0 -104 30 -144 75 -17 20 -76
103 -131 185 l-100 150 175 250 c96 137 175 252 175 255 0 3 -43 4 -96 3 l-96
-3 -267 -392 -266 -391 -3 394 -2 394 -80 0 -80 0 0 -540z"/>
<path d="M2010 2845 c-157 -33 -268 -93 -381 -205 -93 -91 -152 -184 -190
-298 l-21 -62 84 -108 c114 -147 444 -475 593 -590 158 -121 264 -192 285
-192 31 0 193 87 250 134 271 224 351 603 194 922 -43 87 -125 189 -202 250
-67 53 -192 116 -277 139 -84 22 -254 28 -335 10z"/>
<path d="M5189 1757 c-102 -43 -173 -110 -218 -206 -23 -49 -26 -68 -26 -161
0 -99 2 -110 32 -171 39 -80 111 -150 191 -187 50 -24 69 -27 162 -27 94 0
111 3 165 28 251 117 307 452 106 640 -80 75 -146 101 -261 105 -81 2 -103 -1
-151 -21z"/>
<path d="M3045 1678 c-53 -14 -138 -71 -175 -118 -55 -70 -74 -126 -75 -220 0
-78 3 -91 35 -154 l35 -69 108 -43 c199 -79 234 -88 281 -74 174 51 276 231
236 418 -23 111 -127 225 -234 257 -56 17 -151 18 -211 3z"/>
<path d="M4110 1375 c-36 -8 -103 -33 -150 -56 -147 -72 -266 -216 -314 -378
-16 -55 -12 -70 19 -71 6 0 70 -9 144 -20 217 -32 504 -44 710 -31 161 11 321
28 329 36 8 7 -33 135 -60 189 -103 204 -294 330 -520 341 -61 3 -115 0 -158
-10z"/>
</g>
</svg>
