<?xml version="1.0" standalone="no"?>
<!DOCTYPE svg PUBLIC "-//W3C//DTD SVG 20010904//EN"
 "http://www.w3.org/TR/2001/REC-SVG-20010904/DTD/svg10.dtd">
<svg version="1.0" xmlns="http://www.w3.org/2000/svg"
 width="3162.000000pt" height="879.000000pt" viewBox="0 0 3162.000000 879.000000"
 preserveAspectRatio="xMidYMid meet">

<g transform="translate(0.000000,879.000000) scale(0.100000,-0.100000)"
fill="#000000" stroke="none">
<path d="M10340 6834 c-214 -27 -400 -89 -525 -173 -61 -41 -145 -136 -179
-200 -56 -108 -70 -169 -70 -311 1 -182 35 -293 129 -413 119 -151 317 -246
705 -337 352 -82 507 -183 454 -295 -29 -61 -93 -81 -309 -96 -234 -16 -690
11 -952 58 l-33 5 0 -265 0 -265 113 -21 c166 -30 241 -39 469 -52 622 -36
1048 107 1191 402 51 104 68 176 68 299 1 199 -50 329 -177 449 -111 106 -219
155 -509 230 -491 128 -590 175 -611 290 -10 51 17 98 71 122 128 56 719 45
1063 -20 l92 -18 -2 266 -3 266 -75 17 c-185 44 -338 59 -610 63 -146 2 -281
1 -300 -1z"/>
<path d="M14805 6820 c-246 -46 -432 -140 -602 -304 -215 -206 -327 -465 -340
-792 -28 -654 351 -1137 972 -1239 129 -21 338 -19 477 5 617 105 998 613 947
1263 -15 192 -53 336 -125 480 -159 316 -443 520 -817 587 -145 26 -370 26
-512 0z m460 -525 c212 -57 353 -205 411 -430 25 -96 25 -323 1 -415 -60 -228
-204 -378 -418 -436 -95 -26 -311 -24 -400 3 -174 54 -289 149 -358 294 -57
119 -74 218 -69 387 4 113 10 151 32 219 67 207 227 348 441 388 97 18 273 13
360 -10z"/>
<path d="M21755 6834 c-215 -30 -360 -72 -474 -137 -137 -77 -244 -208 -286
-347 -26 -88 -31 -250 -11 -350 26 -130 74 -219 165 -309 124 -124 283 -200
545 -262 239 -57 340 -89 436 -137 107 -53 140 -89 140 -153 0 -47 -38 -82
-112 -104 -174 -51 -831 -34 -1157 31 l-31 7 0 -266 0 -265 113 -21 c158 -30
237 -39 465 -52 473 -27 831 46 1037 214 153 125 225 281 225 492 0 288 -133
477 -418 594 -41 17 -194 62 -342 100 -440 114 -540 168 -540 294 0 75 64 112
219 127 235 23 700 -4 939 -54 l62 -13 0 267 0 267 -102 22 c-194 41 -315 52
-583 56 -143 2 -273 1 -290 -1z"/>
<path d="M11730 5655 l0 -1165 285 0 285 0 0 400 0 400 298 0 c163 0 326 5
362 10 392 62 680 378 680 747 0 131 -22 230 -77 343 -40 81 -61 109 -142 191
-85 85 -108 102 -201 147 -183 90 -140 86 -857 90 l-633 3 0 -1166z m1210 621
c48 -25 88 -64 110 -106 61 -118 12 -273 -103 -329 -41 -20 -59 -21 -345 -21
l-302 0 0 241 0 240 303 -3 c272 -3 305 -5 337 -22z"/>
<path d="M16630 5655 l0 -1165 285 0 285 0 2 548 3 547 205 -275 c113 -151
295 -398 405 -547 l200 -272 347 -1 348 0 -108 144 c-59 79 -203 271 -320 427
-180 238 -211 285 -198 293 8 6 44 27 78 46 84 46 224 186 276 275 126 215
136 476 27 700 -80 165 -197 281 -360 360 -169 82 -132 79 -842 82 l-633 4 0
-1166z m1250 606 c62 -32 78 -48 109 -106 23 -44 26 -61 26 -150 0 -83 -4
-107 -22 -140 -28 -54 -68 -89 -128 -117 -48 -22 -62 -23 -357 -26 l-308 -4 0
287 0 286 318 -3 c311 -3 318 -3 362 -27z"/>
<path d="M18830 6560 l0 -260 345 0 345 0 0 -905 0 -905 280 0 280 0 0 905 0
905 345 0 345 0 0 260 0 260 -970 0 -970 0 0 -260z"/>
<path d="M23980 5655 l0 -1165 285 0 285 0 0 450 0 450 425 0 425 0 0 -450 0
-450 285 0 285 0 0 1165 0 1165 -285 0 -285 0 0 -450 0 -450 -425 0 -425 0 0
450 0 450 -285 0 -285 0 0 -1165z"/>
<path d="M26383 6053 c4 -844 3 -824 68 -993 48 -124 97 -198 204 -306 119
-119 210 -176 365 -228 139 -46 250 -60 430 -53 108 4 170 12 242 31 347 89
595 329 678 656 35 135 39 252 40 973 l0 687 -285 0 -285 0 0 -717 c0 -791 -1
-801 -61 -914 -39 -72 -83 -112 -164 -151 -178 -83 -421 -50 -544 73 -51 50
-96 140 -111 218 -6 33 -10 325 -10 772 l0 719 -286 0 -285 0 4 -767z"/>
<path d="M28820 5655 l0 -1166 693 3 692 3 95 33 c129 45 222 105 317 206 127
134 184 273 184 449 -1 173 -56 303 -184 430 l-78 78 41 47 c185 210 197 506
30 752 -107 158 -256 262 -444 310 -75 19 -110 20 -713 20 l-633 0 0 -1165z
m1236 626 c101 -46 136 -182 70 -281 -53 -81 -48 -80 -418 -80 l-328 0 0 190
0 190 318 0 c287 0 321 -2 358 -19z m73 -911 c88 -44 130 -142 99 -231 -18
-54 -48 -90 -92 -110 -38 -17 -71 -19 -398 -19 l-358 0 0 190 0 190 355 0
c333 0 358 -1 394 -20z"/>
</g>
</svg>
