<?xml version="1.0" standalone="no"?>
<!DOCTYPE svg PUBLIC "-//W3C//DTD SVG 20010904//EN"
 "http://www.w3.org/TR/2001/REC-SVG-20010904/DTD/svg10.dtd">
<svg version="1.0" xmlns="http://www.w3.org/2000/svg"
 width="3162.000000pt" height="879.000000pt" viewBox="0 0 3162.000000 879.000000"
 preserveAspectRatio="xMidYMid meet">

<g transform="translate(0.000000,879.000000) scale(0.100000,-0.100000)"
fill="#000000" stroke="none">
<path d="M4543 7943 c-48 -62 -70 -104 -96 -183 -34 -104 -41 -187 -23 -290
81 -457 621 -655 983 -361 72 60 151 172 183 262 28 81 38 259 18 334 l-14 50
-169 57 c-243 81 -506 135 -786 163 l-66 7 -30 -39z"/>
<path d="M2675 7597 c-203 -107 -413 -241 -568 -364 -101 -80 -279 -238 -362
-323 -78 -79 -79 -75 15 -111 114 -43 172 -54 295 -54 140 0 218 20 350 88 94
49 229 177 284 270 44 75 85 192 101 287 13 74 7 237 -8 252 -4 4 -52 -17
-107 -45z"/>
<path d="M3600 7619 c-255 -43 -475 -209 -586 -444 -54 -116 -74 -207 -74
-343 0 -303 163 -563 435 -698 131 -64 196 -79 350 -79 154 0 219 15 350 79
272 135 435 395 435 698 0 136 -20 227 -74 343 -149 317 -494 500 -836 444z"/>
<path d="M5855 7568 c-148 -224 -87 -528 135 -676 161 -108 384 -111 537 -7
63 42 131 112 157 160 l19 35 -43 38 c-147 127 -359 278 -533 381 -86 50 -221
121 -232 121 -2 0 -20 -24 -40 -52z"/>
<path d="M6745 6880 c-128 -146 -209 -285 -269 -462 -49 -146 -68 -267 -69
-428 -1 -289 71 -527 232 -767 211 -315 545 -525 928 -582 82 -12 320 -15 326
-3 6 12 -20 243 -43 375 -89 518 -293 1011 -604 1457 -119 171 -394 491 -420
489 -6 0 -42 -36 -81 -79z"/>
<path d="M5134 6836 c-269 -70 -508 -279 -604 -528 -86 -224 -90 -431 -10
-649 99 -272 334 -483 618 -555 113 -29 289 -33 400 -9 366 77 643 368 703
739 15 94 7 265 -16 356 -10 36 -38 110 -64 165 -121 254 -347 432 -623 490
-109 23 -294 19 -404 -9z"/>
<path d="M10340 6834 c-214 -27 -400 -89 -525 -173 -61 -41 -145 -136 -179
-200 -56 -108 -70 -169 -70 -311 1 -182 35 -293 129 -413 119 -151 317 -246
705 -337 352 -82 507 -183 454 -295 -29 -61 -93 -81 -309 -96 -234 -16 -690
11 -952 58 l-33 5 0 -265 0 -265 113 -21 c166 -30 241 -39 469 -52 622 -36
1048 107 1191 402 51 104 68 176 68 299 1 199 -50 329 -177 449 -111 106 -219
155 -509 230 -491 128 -590 175 -611 290 -10 51 17 98 71 122 128 56 719 45
1063 -20 l92 -18 -2 266 -3 266 -75 17 c-185 44 -338 59 -610 63 -146 2 -281
1 -300 -1z"/>
<path d="M14805 6820 c-246 -46 -432 -140 -602 -304 -215 -206 -327 -465 -340
-792 -28 -654 351 -1137 972 -1239 129 -21 338 -19 477 5 617 105 998 613 947
1263 -15 192 -53 336 -125 480 -159 316 -443 520 -817 587 -145 26 -370 26
-512 0z m460 -525 c212 -57 353 -205 411 -430 25 -96 25 -323 1 -415 -60 -228
-204 -378 -418 -436 -95 -26 -311 -24 -400 3 -174 54 -289 149 -358 294 -57
119 -74 218 -69 387 4 113 10 151 32 219 67 207 227 348 441 388 97 18 273 13
360 -10z"/>
<path d="M21755 6834 c-215 -30 -360 -72 -474 -137 -137 -77 -244 -208 -286
-347 -26 -88 -31 -250 -11 -350 26 -130 74 -219 165 -309 124 -124 283 -200
545 -262 239 -57 340 -89 436 -137 107 -53 140 -89 140 -153 0 -47 -38 -82
-112 -104 -174 -51 -831 -34 -1157 31 l-31 7 0 -266 0 -265 113 -21 c158 -30
237 -39 465 -52 473 -27 831 46 1037 214 153 125 225 281 225 492 0 288 -133
477 -418 594 -41 17 -194 62 -342 100 -440 114 -540 168 -540 294 0 75 64 112
219 127 235 23 700 -4 939 -54 l62 -13 0 267 0 267 -102 22 c-194 41 -315 52
-583 56 -143 2 -273 1 -290 -1z"/>
<path d="M11730 5655 l0 -1165 285 0 285 0 0 400 0 400 298 0 c163 0 326 5
362 10 392 62 680 378 680 747 0 131 -22 230 -77 343 -40 81 -61 109 -142 191
-85 85 -108 102 -201 147 -183 90 -140 86 -857 90 l-633 3 0 -1166z m1210 621
c48 -25 88 -64 110 -106 61 -118 12 -273 -103 -329 -41 -20 -59 -21 -345 -21
l-302 0 0 241 0 240 303 -3 c272 -3 305 -5 337 -22z"/>
<path d="M16630 5655 l0 -1165 285 0 285 0 2 548 3 547 205 -275 c113 -151
295 -398 405 -547 l200 -272 347 -1 348 0 -108 144 c-59 79 -203 271 -320 427
-180 238 -211 285 -198 293 8 6 44 27 78 46 84 46 224 186 276 275 126 215
136 476 27 700 -80 165 -197 281 -360 360 -169 82 -132 79 -842 82 l-633 4 0
-1166z m1250 606 c62 -32 78 -48 109 -106 23 -44 26 -61 26 -150 0 -83 -4
-107 -22 -140 -28 -54 -68 -89 -128 -117 -48 -22 -62 -23 -357 -26 l-308 -4 0
287 0 286 318 -3 c311 -3 318 -3 362 -27z"/>
<path d="M18830 6560 l0 -260 345 0 345 0 0 -905 0 -905 280 0 280 0 0 905 0
905 345 0 345 0 0 260 0 260 -970 0 -970 0 0 -260z"/>
<path d="M23980 5655 l0 -1165 285 0 285 0 0 450 0 450 425 0 425 0 0 -450 0
-450 285 0 285 0 0 1165 0 1165 -285 0 -285 0 0 -450 0 -450 -425 0 -425 0 0
450 0 450 -285 0 -285 0 0 -1165z"/>
<path d="M26383 6053 c4 -844 3 -824 68 -993 48 -124 97 -198 204 -306 119
-119 210 -176 365 -228 139 -46 250 -60 430 -53 108 4 170 12 242 31 347 89
595 329 678 656 35 135 39 252 40 973 l0 687 -285 0 -285 0 0 -717 c0 -791 -1
-801 -61 -914 -39 -72 -83 -112 -164 -151 -178 -83 -421 -50 -544 73 -51 50
-96 140 -111 218 -6 33 -10 325 -10 772 l0 719 -286 0 -285 0 4 -767z"/>
<path d="M28820 5655 l0 -1166 693 3 692 3 95 33 c129 45 222 105 317 206 127
134 184 273 184 449 -1 173 -56 303 -184 430 l-78 78 41 47 c185 210 197 506
30 752 -107 158 -256 262 -444 310 -75 19 -110 20 -713 20 l-633 0 0 -1165z
m1236 626 c101 -46 136 -182 70 -281 -53 -81 -48 -80 -418 -80 l-328 0 0 190
0 190 318 0 c287 0 321 -2 358 -19z m73 -911 c88 -44 130 -142 99 -231 -18
-54 -48 -90 -92 -110 -38 -17 -71 -19 -398 -19 l-358 0 0 190 0 190 355 0
c333 0 358 -1 394 -20z"/>
<path d="M2316 6554 c-152 -37 -318 -170 -389 -311 -153 -309 -30 -673 278
-820 176 -83 353 -81 530 6 101 50 176 116 235 207 71 108 95 194 95 334 0
174 -46 289 -166 414 -80 85 -184 146 -290 171 -79 18 -215 18 -293 -1z"/>
<path d="M1267 6298 c-158 -256 -274 -506 -365 -788 -34 -104 -92 -315 -92
-334 0 -12 163 -65 234 -76 320 -48 639 171 721 495 19 77 19 234 0 310 -35
133 -122 270 -222 350 -62 49 -185 115 -213 115 -11 0 -35 -27 -63 -72z"/>
<path d="M3933 6011 c-300 -111 -319 -524 -30 -657 53 -25 75 -29 147 -29 76
0 93 3 152 33 167 82 243 271 178 445 -28 76 -104 158 -178 193 -77 37 -193
43 -269 15z"/>
<path d="M3150 5440 c-41 -11 -113 -39 -160 -62 -69 -34 -103 -60 -180 -138
-136 -135 -199 -263 -219 -445 -49 -428 272 -807 704 -832 450 -26 818 342
792 792 -19 330 -245 604 -564 686 -102 26 -269 25 -373 -1z"/>
<path d="M2165 5213 c-75 -39 -116 -106 -116 -188 0 -67 22 -116 73 -160 85
-72 204 -66 282 14 98 101 71 267 -55 331 -47 25 -141 26 -184 3z"/>
<path d="M4685 5094 c-112 -24 -199 -62 -283 -125 -147 -112 -242 -323 -228
-511 33 -458 528 -714 922 -477 123 74 236 230 269 371 19 81 19 206 0 287
-51 214 -243 400 -460 446 -66 14 -175 18 -220 9z"/>
<path d="M1289 5066 c-337 -93 -456 -510 -217 -762 91 -96 201 -144 331 -144
133 0 242 46 334 139 133 134 168 345 86 519 -53 113 -190 223 -314 251 -59
14 -163 12 -220 -3z"/>
<path d="M5849 4987 c-79 -27 -145 -78 -187 -144 -42 -67 -55 -118 -50 -204
10 -192 158 -339 341 -339 277 1 446 274 322 520 -27 52 -94 124 -139 147 -90
46 -189 53 -287 20z"/>
<path d="M6790 4615 c-232 -44 -428 -161 -562 -335 -283 -367 -239 -884 102
-1203 168 -157 370 -237 598 -237 54 0 125 5 158 11 287 50 535 237 655 493
63 136 83 229 84 391 0 156 -9 205 -62 335 -111 271 -339 467 -623 535 -94 23
-260 27 -350 10z"/>
<path d="M2130 4535 c-163 -45 -269 -197 -258 -371 6 -95 41 -167 113 -233
177 -161 452 -109 560 106 27 52 30 68 30 153 0 84 -3 102 -28 152 -76 155
-254 238 -417 193z"/>
<path d="M5450 4019 c-123 -24 -245 -122 -301 -243 -118 -251 45 -551 322
-595 254 -41 489 160 489 417 0 126 -42 223 -135 311 -103 98 -237 137 -375
110z"/>
<path d="M1316 4004 c-166 -40 -316 -161 -394 -318 -34 -69 -62 -169 -62 -227
0 -30 45 -175 120 -389 27 -75 164 -183 288 -226 306 -106 654 62 762 368 28
79 43 191 35 257 -30 259 -207 469 -450 531 -92 23 -212 25 -299 4z"/>
<path d="M3980 3825 c-492 -69 -900 -462 -985 -949 -19 -113 -19 -299 0 -411
73 -420 373 -770 776 -908 224 -77 516 -77 744 -1 530 177 868 709 794 1251
-73 539 -475 948 -999 1019 -126 16 -204 16 -330 -1z"/>
<path d="M2445 3737 c-184 -62 -297 -226 -282 -410 15 -181 150 -326 333 -358
142 -25 300 43 384 166 137 199 61 476 -160 579 -53 25 -80 31 -150 33 -52 2
-101 -2 -125 -10z"/>
<path d="M5935 2944 c-240 -53 -445 -252 -500 -486 -19 -82 -19 -238 0 -313
59 -233 241 -417 475 -481 86 -23 242 -23 330 0 156 42 319 164 398 298 82
139 112 326 78 482 -50 223 -223 413 -440 482 -104 33 -241 40 -341 18z"/>
<path d="M9560 2875 c0 -3 27 -38 60 -77 l60 -72 0 -463 0 -463 80 0 80 0 2
364 3 364 303 -364 304 -364 79 0 79 0 0 540 0 540 -80 0 -80 0 0 -411 0 -410
-343 408 -343 408 -102 3 c-56 1 -102 0 -102 -3z"/>
<path d="M11500 2340 l0 -540 75 0 75 0 0 540 0 540 -75 0 -75 0 0 -540z"/>
<path d="M12430 2800 l0 -80 190 0 190 0 0 -460 0 -460 80 0 80 0 0 460 0 460
190 0 190 0 0 80 0 80 -460 0 -460 0 0 -80z"/>
<path d="M14120 2340 l0 -540 80 0 80 0 143 215 144 215 87 -140 c157 -253
189 -280 334 -288 l82 -5 0 82 0 81 -35 0 c-47 0 -104 30 -144 75 -17 20 -76
103 -131 185 l-100 150 175 250 c96 137 175 252 175 255 0 3 -43 4 -96 3 l-96
-3 -267 -392 -266 -391 -3 394 -2 394 -80 0 -80 0 0 -540z"/>
<path d="M2010 2845 c-157 -33 -268 -93 -381 -205 -93 -91 -152 -184 -190
-298 l-21 -62 84 -108 c114 -147 444 -475 593 -590 158 -121 264 -192 285
-192 31 0 193 87 250 134 271 224 351 603 194 922 -43 87 -125 189 -202 250
-67 53 -192 116 -277 139 -84 22 -254 28 -335 10z"/>
<path d="M5189 1757 c-102 -43 -173 -110 -218 -206 -23 -49 -26 -68 -26 -161
0 -99 2 -110 32 -171 39 -80 111 -150 191 -187 50 -24 69 -27 162 -27 94 0
111 3 165 28 251 117 307 452 106 640 -80 75 -146 101 -261 105 -81 2 -103 -1
-151 -21z"/>
<path d="M3045 1678 c-53 -14 -138 -71 -175 -118 -55 -70 -74 -126 -75 -220 0
-78 3 -91 35 -154 l35 -69 108 -43 c199 -79 234 -88 281 -74 174 51 276 231
236 418 -23 111 -127 225 -234 257 -56 17 -151 18 -211 3z"/>
<path d="M4110 1375 c-36 -8 -103 -33 -150 -56 -147 -72 -266 -216 -314 -378
-16 -55 -12 -70 19 -71 6 0 70 -9 144 -20 217 -32 504 -44 710 -31 161 11 321
28 329 36 8 7 -33 135 -60 189 -103 204 -294 330 -520 341 -61 3 -115 0 -158
-10z"/>
</g>
</svg>
